<svg xmlns="http://www.w3.org/2000/svg" fill="none" viewBox="2.86 54.74 144.12 40.15">
<path d="M9.61539 77.5824V77.033C8.68132 76.978 7.08791 77.033 7.08791 75.989C7.08791 75 8.13188 73.1868 8.57144 72.1978L8.84616 71.5934H16.5934L17.8022 74.1758C18.0769 74.7253 18.4066 75.4945 18.4066 76.0989C18.4066 77.0879 16.8681 77.033 15.989 77.033V77.6374C17.4725 77.6374 19.011 77.5824 20.4945 77.5275C21.978 77.5275 23.4615 77.5824 24.9451 77.6374V77.033C23.9011 76.9231 22.967 76.8132 22.2528 76.0989C21.7033 75.5495 20.989 74.011 20.6044 73.3517L14.2857 60.6593H13.2418L8.46154 70.4945C7.58242 72.0879 6.75825 73.6813 5.87913 75.2747C5.27473 76.4835 4.56044 76.9231 2.85715 77.033V77.5824C3.95605 77.5275 5.00001 77.5275 6.09891 77.4725C7.3077 77.5275 8.46154 77.5824 9.61539 77.5824ZM12.7473 63.6813L16.2088 70.7143H9.28572L12.7473 63.6813Z" fill="white"/>
<path d="M35.3846 70.8791C35.7143 70.8791 36.1539 70.989 36.1539 70.6593C36.1539 67.967 33.2418 66.5934 30.1648 66.5934C26.0989 66.5934 23.1319 69.3956 23.1319 72.5275C23.1319 75.7143 26.3187 77.9121 30.1648 77.9121C32.5275 77.9121 34.2857 77.2527 35.7143 75.7692L35.055 75.2198C34.1209 76.2088 32.6923 77.0879 31.0989 77.0879C27.7473 77.0879 26.2088 74.4506 26.2088 72.033L26.3187 70.8242L35.3846 70.8791ZM30.2198 67.1429C32.1978 67.1429 33.2418 68.1319 33.2418 69.6703C33.2418 70.2747 32.1978 70.1648 31.7033 70.1648H26.5385C26.978 68.5714 27.9121 67.1429 30.2198 67.1429Z" fill="white"/>
<path d="M50.7143 77.0879V77.5824C51.9231 77.5824 53.1319 77.5275 54.3956 77.4725C55.4945 77.4725 56.7033 77.5275 57.7473 77.5824V77.0879C55.2747 76.978 55.6044 76.2088 55.5495 74.5604V66.5385L51.5385 67.1429C51.2088 66.7582 50.4945 66.5934 49.8901 66.5934C48.7363 66.5934 47.6923 67.1429 46.8681 67.6374C45.8242 66.8681 44.3407 66.5385 42.9121 66.5385C39.8352 66.5385 37.033 67.967 37.033 70.6044C37.033 72.1978 38.5714 73.5714 40.3846 74.0659V74.1209C39.0659 74.2857 37.6374 75.0549 37.6374 76.2637C37.6374 78.5165 40.4945 78.4615 42.5275 78.5165C44.6703 78.6264 48.1319 78.5165 48.1319 80.9341C48.1319 82.967 45.7692 83.7363 43.5714 83.7363C41.3736 83.7363 38.6264 83.2967 38.6264 81.1538C38.6264 80.3846 39.2308 79.5055 40.2747 79.3956C39.8901 79.1209 39.5055 78.956 38.9561 78.956C37.6374 78.956 36.6484 80 36.6484 81.044C36.6484 83.6264 40.6044 84.3956 43.1868 84.3956C46.5934 84.3956 50.2747 83.3516 50.2747 80.2198C50.2747 76.8681 46.9231 76.7582 43.7363 76.5934L41.6484 76.5385C40.9341 76.4835 39.2308 76.5934 39.2308 75.7143C39.2308 74.6703 41.6484 74.6703 42.5824 74.6703C45.8242 74.5604 48.5714 73.6813 48.5714 70.7692C48.5714 69.8901 48.1868 69.011 47.4725 68.2967C47.8022 68.0769 48.2967 67.8022 48.7363 67.8022C49.7253 67.8022 49.7802 68.6813 50.7692 68.6813C51.3187 68.6813 51.7033 68.4066 51.7583 68.022C52.2528 68.0769 52.6374 68.2417 52.8022 68.5714C52.9121 68.956 52.9121 70.8791 52.9121 71.3187V74.8901C52.8571 76.3736 53.022 76.978 50.7143 77.0879ZM42.6923 73.956C40.4396 73.956 39.6703 72.0879 39.6703 70.6044C39.6703 69.011 40.3297 67.1429 42.7473 67.1429C45.1099 67.1429 45.8791 69.011 45.8791 70.6044C45.8791 72.1978 45.055 73.956 42.6923 73.956Z" fill="white"/>
<path d="M53.9011 63.4615C54.7802 63.4615 55.4945 62.8571 55.4945 62.1429C55.4945 61.3736 54.7802 60.7692 53.8462 60.7692C52.9121 60.7692 52.1429 61.3736 52.1429 62.1429C52.1429 62.9121 52.967 63.4615 53.9011 63.4615Z" fill="white"/>
<path d="M63.1868 70.7692C61.978 70.2198 60.2747 69.7802 60.2747 68.5165C60.2747 67.6374 61.2637 67.1429 62.2527 67.1429C64.2308 67.1429 64.8901 68.4615 65.4945 69.7253H66.0989L66.1539 66.5934H65.7692L65.1648 67.1978C64.2857 66.8132 63.0769 66.5934 62.1429 66.5934C60 66.5934 58.2418 67.8572 58.2418 69.6154C58.2418 71.4835 60.1648 72.3077 61.978 73.0769C63.2967 73.6264 65.1099 74.1758 65.1099 75.6044C65.1099 76.8132 63.8462 77.3626 62.4725 77.3626C60.1648 77.3626 59.1209 75.7692 58.5714 74.1758H57.967L58.0769 77.7473H58.4066L59.1758 77.033C60.1099 77.6374 61.4286 77.9121 62.6374 77.9121C65.055 77.9121 67.2528 76.6483 67.2528 74.6154C67.3077 72.3626 65.3846 71.7033 63.1868 70.7692Z" fill="white"/>
<path d="M87.5824 76.3187C86.3187 76.978 84.6154 76.9231 83.1319 76.9231C79.1758 76.9231 78.5165 76.3736 78.5165 73.1868V65.7692C78.5165 64.9451 78.5165 63.1319 78.8461 62.4176C79.2308 61.5934 80.5494 61.5934 81.5385 61.5934V61.044C79.945 61.044 78.4066 61.0989 76.8132 61.1538C75.3297 61.1538 73.8462 61.0989 72.3626 61.044V61.5934C73.3517 61.5934 74.6703 61.5934 75.0549 62.4725C75.3846 63.1319 75.3846 65 75.3846 65.8242V72.8571C75.3846 73.6813 75.3846 75.4945 75.0549 76.1539C74.6703 77.033 73.3517 76.978 72.3626 76.978V77.5275C77.7473 77.5275 83.1319 77.5275 88.5165 77.4176C89.0659 77.4725 89.6154 77.4725 90.1648 77.5275L90.4396 73.0769H89.6703C89.3407 74.6154 89.1209 75.5494 87.5824 76.3187Z" fill="white"/>
<path d="M90.7143 77.1429V77.6374C91.9231 77.6374 93.1319 77.5824 94.3956 77.5275C95.4945 77.5275 96.7033 77.5824 97.7473 77.6374V77.1429C95.2747 77.033 95.6044 76.2637 95.5495 74.6154V66.5934L90.6044 67.3626V67.8571C91.2088 67.8571 92.5275 67.8022 92.7473 68.4066C92.8571 68.7912 92.8572 70.7143 92.8572 71.1538V74.7253C92.8572 76.4286 93.022 77.033 90.7143 77.1429Z" fill="white"/>
<path d="M97.8572 69.1758L102.527 78.1319H103.187L106.868 70.8791C107.198 70.1648 108.022 68.5165 108.517 67.967C108.681 67.8022 108.846 67.6923 109.066 67.5824V67.9121C109.67 67.9121 110.989 67.8571 111.209 68.4615C111.319 68.8462 111.319 70.7692 111.319 71.2088V74.7802C111.264 76.4286 111.484 77.033 109.176 77.1429V77.6374C110.385 77.6374 111.593 77.5824 112.857 77.5275C113.956 77.5275 115.165 77.5824 116.209 77.6374V77.1429C113.736 77.033 114.066 76.2637 114.011 74.6154V66.5934L109.78 67.2527V66.8132C109.011 66.8132 108.297 66.8681 107.527 66.9231C106.758 66.9231 105.989 66.8681 105.22 66.8132V67.3077C105.989 67.3626 106.978 67.5275 106.978 68.3516C106.978 69.5055 104.396 74.0659 103.846 75.3846L100.824 69.3407C100.714 69.0659 100.44 68.4615 100.44 68.1319C100.44 67.4176 101.538 67.3077 102.198 67.3077V66.8132C101.154 66.8681 100.055 66.8681 99.011 66.9231C97.9121 66.9231 96.8132 66.8681 95.6594 66.8132V67.3077C97.0879 67.3626 97.3627 68.1868 97.8572 69.1758Z" fill="white"/>
<path d="M121.044 74.6154V70.7143C121.044 68.9011 122.582 67.3626 125.055 67.3626C128.022 67.3626 127.912 69.8352 127.912 71.5385V74.7253C127.912 76.3736 128.077 76.978 125.714 77.0879V77.5824C126.923 77.5824 128.132 77.5275 129.341 77.4725C130.495 77.4725 131.648 77.5275 132.747 77.5824V77.0879C130.33 76.978 130.549 76.2088 130.549 74.5604V70C130.549 67.6374 128.846 66.5385 125.879 66.5385C123.681 66.5385 121.978 67.2527 120.824 68.7912L120.385 66.5385C118.846 66.7582 117.692 67.1429 116.099 67.3077V67.8022C117.088 67.8022 117.967 67.6923 118.187 68.6264C118.352 69.1758 118.352 70.9341 118.352 71.6483V74.7253C118.352 76.3736 118.516 76.978 116.154 77.0879V77.5824C117.363 77.5824 118.571 77.5275 119.78 77.4725C120.934 77.4725 122.088 77.5275 123.187 77.5824V77.0879C120.769 77.033 121.044 76.2637 121.044 74.6154Z" fill="white"/>
<path d="M145.055 66.7033C143.956 66.7033 142.857 67.2527 142.033 67.7472C140.989 66.978 139.505 66.6483 138.077 66.6483C135 66.6483 132.198 68.0769 132.198 70.7143C132.198 72.3077 133.736 73.6813 135.549 74.1758V74.2308C134.231 74.3956 132.802 75.1648 132.802 76.3736C132.802 78.6264 135.659 78.5714 137.692 78.6264C139.835 78.7363 143.297 78.6264 143.297 81.044C143.297 83.0769 140.934 83.8462 138.736 83.8462C136.538 83.8462 133.791 83.4066 133.791 81.2637C133.791 80.4945 134.396 79.6154 135.44 79.5055C135.055 79.2308 134.67 79.0659 134.121 79.0659C132.747 79.0659 131.813 80.1099 131.813 81.1539C131.813 83.7363 135.769 84.5055 138.352 84.5055C141.758 84.5055 145.44 83.4615 145.44 80.3297C145.44 76.978 142.088 76.8681 138.901 76.7033L136.813 76.6484C136.099 76.5934 134.396 76.7033 134.396 75.8242C134.396 74.7802 136.813 74.7802 137.747 74.7802C140.989 74.6703 143.736 73.7912 143.736 70.8791C143.736 70 143.352 69.1209 142.637 68.4066C142.967 68.1868 143.462 67.9121 143.901 67.9121C144.89 67.9121 144.945 68.7912 145.934 68.7912C146.538 68.7912 146.978 68.4066 146.978 67.967C146.923 66.978 145.879 66.7033 145.055 66.7033ZM137.857 73.956C135.604 73.956 134.835 72.0879 134.835 70.6044C134.835 69.011 135.494 67.1429 137.912 67.1429C140.275 67.1429 141.044 69.011 141.044 70.6044C141.044 72.2527 140.275 73.956 137.857 73.956Z" fill="white"/>
<path d="M94.011 63.4615C94.8901 63.4615 95.6044 62.8571 95.6044 62.1429C95.6044 61.3736 94.8901 60.7692 93.956 60.7692C93.022 60.7692 92.2527 61.3736 92.2527 62.1429C92.2527 62.9121 93.022 63.4615 94.011 63.4615Z" fill="white"/>
<path d="M112.473 63.4615C113.352 63.4615 114.066 62.8571 114.066 62.1429C114.066 61.3736 113.352 60.7692 112.418 60.7692C111.484 60.7692 110.714 61.3736 110.714 62.1429C110.714 62.9121 111.538 63.4615 112.473 63.4615Z" fill="white"/>
<path d="M16.2638 57.5275C16.5934 57.1978 17.1429 56.6483 17.4176 56.2088C17.7473 55.7143 17.7473 55.1648 17.3077 54.8901C16.8681 54.6154 16.3736 54.7253 15.989 55.2198C15.7143 55.6593 15.3846 56.3187 15.1649 56.7582L13.9561 59.2857H14.5605L16.2638 57.5275Z" fill="white"/>
<path d="M17.9121 92.8022H17.1978L19.8352 86.7033H20.4396L23.0769 92.8022H22.3626L21.7033 91.2088H18.5714L17.9121 92.8022ZM18.8462 90.6044H21.4835L20.1648 87.3626L18.8462 90.6044Z" fill="white"/>
<path d="M26.044 89.7253C25.9341 89.5604 25.8242 89.4506 25.7143 89.3407C25.5495 89.2308 25.3846 89.1758 25.1649 89.1758C25.055 89.1758 24.9451 89.1758 24.8901 89.2308C24.7802 89.2308 24.7253 89.2857 24.6154 89.3407C24.5055 89.3956 24.4506 89.4505 24.3956 89.5055C24.3407 89.5604 24.3407 89.6703 24.3407 89.7802C24.3407 89.9451 24.3956 90.1099 24.5605 90.2198C24.6703 90.3297 24.8901 90.3846 25.1649 90.4396L25.7692 90.6044C26.044 90.6593 26.2637 90.7692 26.4835 90.989C26.6484 91.2088 26.7583 91.4286 26.7583 91.7033C26.7583 91.9231 26.7033 92.0879 26.6484 92.2527C26.5934 92.4176 26.4286 92.5275 26.3187 92.6374C26.1539 92.7473 25.989 92.8022 25.8242 92.8571C25.6594 92.9121 25.4396 92.9121 25.2198 92.9121C24.8901 92.9121 24.6154 92.8571 24.3407 92.7472C24.066 92.6374 23.8462 92.4176 23.6264 92.1429L24.1209 91.8132C24.2308 91.978 24.3956 92.1429 24.5605 92.2527C24.7253 92.3626 24.9451 92.4176 25.1649 92.4176C25.2747 92.4176 25.3846 92.4176 25.4945 92.3626C25.6044 92.3626 25.7143 92.3077 25.8242 92.2527C25.9341 92.1978 25.989 92.1429 26.044 92.033C26.0989 91.9231 26.0989 91.8681 26.0989 91.7033C26.0989 91.4835 26.044 91.3736 25.8791 91.2637C25.7143 91.1538 25.5495 91.0989 25.3297 91.044L24.7802 90.9341C24.7253 90.9341 24.6154 90.8791 24.5055 90.8242C24.3956 90.7692 24.2857 90.7143 24.1758 90.6593C24.0659 90.6044 23.9561 90.4945 23.9011 90.3297C23.8462 90.2198 23.7912 90.0549 23.7912 89.8352C23.7912 89.6154 23.8462 89.4505 23.9011 89.2857C24.011 89.1209 24.1209 89.011 24.2308 88.9011C24.3407 88.7912 24.5055 88.7363 24.7253 88.6813C24.8901 88.6264 25.1099 88.6264 25.2747 88.6264C25.5495 88.6264 25.8242 88.6813 26.044 88.7912C26.2637 88.9011 26.4835 89.0659 26.5934 89.3407L26.044 89.7253Z" fill="white"/>
<path d="M29.8352 89.7253C29.7253 89.5604 29.6154 89.4506 29.5055 89.3407C29.3407 89.2308 29.1758 89.1758 28.9561 89.1758C28.8462 89.1758 28.7363 89.1758 28.6813 89.2308C28.5714 89.2308 28.5165 89.2857 28.4066 89.3407C28.2967 89.3956 28.2418 89.4505 28.1868 89.5055C28.1319 89.5604 28.1319 89.6703 28.1319 89.7802C28.1319 89.9451 28.1868 90.1099 28.3517 90.2198C28.4615 90.3297 28.6813 90.3846 28.9561 90.4396L29.5604 90.6044C29.8352 90.6593 30.055 90.7692 30.2747 90.989C30.4396 91.2088 30.5495 91.4286 30.5495 91.7033C30.5495 91.9231 30.4945 92.0879 30.4396 92.2527C30.3846 92.4176 30.2198 92.5275 30.1099 92.6374C29.9451 92.7473 29.7802 92.8022 29.6154 92.8571C29.4506 92.9121 29.2308 92.9121 29.011 92.9121C28.6813 92.9121 28.4066 92.8571 28.1319 92.7472C27.8571 92.6374 27.6374 92.4176 27.4176 92.1429L27.9121 91.8132C28.022 91.978 28.1868 92.1429 28.3517 92.2527C28.5165 92.3626 28.7363 92.4176 28.9561 92.4176C29.0659 92.4176 29.1758 92.4176 29.2857 92.3626C29.3956 92.3626 29.5055 92.3077 29.6154 92.2527C29.7253 92.1978 29.7802 92.1429 29.8352 92.033C29.8901 91.9231 29.8901 91.8681 29.8901 91.7033C29.8901 91.4835 29.8352 91.3736 29.6703 91.2637C29.5055 91.1538 29.3407 91.0989 29.1209 91.044L28.5714 90.9341C28.5165 90.9341 28.4066 90.8791 28.2967 90.8242C28.1868 90.7692 28.0769 90.7143 27.967 90.6593C27.8571 90.6044 27.7473 90.4945 27.6923 90.3297C27.6374 90.2198 27.5824 90.0549 27.5824 89.8352C27.5824 89.6154 27.6374 89.4505 27.6923 89.2857C27.8022 89.1209 27.9121 89.011 28.022 88.9011C28.1319 88.7912 28.2967 88.7363 28.5165 88.6813C28.6813 88.6264 28.9011 88.6264 29.0659 88.6264C29.3407 88.6264 29.6154 88.6813 29.8352 88.7912C30.055 88.9011 30.2747 89.0659 30.3846 89.3407L29.8352 89.7253Z" fill="white"/>
<path d="M32.1978 87.1978C32.1978 87.3077 32.1429 87.4176 32.0879 87.4725C31.978 87.5275 31.9231 87.5824 31.8132 87.5824C31.7033 87.5824 31.5934 87.5275 31.5385 87.4725C31.4286 87.4176 31.4286 87.3077 31.4286 87.1978C31.4286 87.0879 31.4835 86.978 31.5385 86.9231C31.6484 86.8681 31.7033 86.8132 31.8132 86.8132C31.9231 86.8132 32.033 86.8681 32.0879 86.9231C32.1429 86.978 32.1978 87.0879 32.1978 87.1978ZM32.0879 92.8022H31.5385V88.7363H32.0879V92.8022Z" fill="white"/>
<path d="M35.5495 89.7253C35.4396 89.5604 35.3297 89.4506 35.2198 89.3407C35.055 89.2308 34.8901 89.1758 34.6703 89.1758C34.5605 89.1758 34.4506 89.1758 34.3956 89.2308C34.2857 89.2308 34.2308 89.2857 34.1209 89.3407C34.011 89.3956 33.9561 89.4505 33.9011 89.5055C33.8462 89.5604 33.8462 89.6703 33.8462 89.7802C33.8462 89.9451 33.9011 90.1099 34.0659 90.2198C34.1758 90.3297 34.3956 90.3846 34.6703 90.4396L35.2747 90.6044C35.5495 90.6593 35.7692 90.7692 35.989 90.989C36.1539 91.2088 36.2637 91.4286 36.2637 91.7033C36.2637 91.9231 36.2088 92.0879 36.1539 92.2527C36.0989 92.4176 35.9341 92.5275 35.8242 92.6374C35.6594 92.7473 35.4945 92.8022 35.3297 92.8571C35.1648 92.9121 34.9451 92.9121 34.7253 92.9121C34.3956 92.9121 34.1209 92.8571 33.8462 92.7472C33.5714 92.6374 33.3517 92.4176 33.1319 92.1429L33.6264 91.8132C33.7363 91.978 33.9011 92.1429 34.0659 92.2527C34.2308 92.3626 34.4506 92.4176 34.6703 92.4176C34.7802 92.4176 34.8901 92.4176 35 92.3626C35.1099 92.3626 35.2198 92.3077 35.3297 92.2527C35.4396 92.1978 35.4945 92.1429 35.5495 92.033C35.6044 91.9231 35.6044 91.8681 35.6044 91.7033C35.6044 91.4835 35.5495 91.3736 35.3846 91.2637C35.2198 91.1538 35.055 91.0989 34.8352 91.044L34.2857 90.9341C34.2308 90.9341 34.1209 90.8791 34.011 90.8242C33.9011 90.7692 33.7912 90.7143 33.6813 90.6593C33.5714 90.6044 33.4616 90.4945 33.4066 90.3297C33.3517 90.2198 33.2967 90.0549 33.2967 89.8352C33.2967 89.6154 33.3517 89.4505 33.4066 89.2857C33.5165 89.1209 33.6264 89.011 33.7363 88.9011C33.8462 88.7912 34.011 88.7363 34.2308 88.6813C34.3956 88.6264 34.6154 88.6264 34.7802 88.6264C35.055 88.6264 35.3297 88.6813 35.5495 88.7912C35.7692 88.9011 35.989 89.0659 36.0989 89.3407L35.5495 89.7253Z" fill="white"/>
<path d="M39.3407 89.2857H38.1868V91.6483C38.1868 91.8132 38.1868 91.9231 38.2418 92.033C38.2967 92.1429 38.2967 92.1978 38.3517 92.2527C38.4066 92.3077 38.4616 92.3626 38.5165 92.3626C38.5714 92.3626 38.6813 92.4176 38.7363 92.4176C38.8462 92.4176 38.9561 92.4176 39.0659 92.3626C39.1758 92.3077 39.2857 92.3077 39.3407 92.2527V92.8022C39.1209 92.9121 38.8462 92.967 38.5714 92.967C38.4615 92.967 38.3517 92.967 38.2418 92.9121C38.1319 92.8571 38.022 92.8022 37.9121 92.7472C37.8022 92.6923 37.7473 92.5824 37.6923 92.4176C37.6374 92.2528 37.5824 92.0879 37.5824 91.8681V89.2857H36.7033V88.7363H37.5824V87.6374H38.1319V88.7912H39.2857V89.2857H39.3407Z" fill="white"/>
<path d="M40.3846 90.9341C40.3846 91.1538 40.4396 91.3187 40.5495 91.4835C40.6593 91.6484 40.7143 91.8132 40.8791 91.9231C40.989 92.033 41.1538 92.1429 41.3187 92.2527C41.4835 92.3077 41.7033 92.3626 41.8681 92.3626C42.1978 92.3626 42.4176 92.3077 42.6374 92.1429C42.8572 91.978 43.022 91.8132 43.1319 91.6483L43.5714 92.033C43.3517 92.3626 43.0769 92.5824 42.7473 92.6923C42.4725 92.8022 42.1429 92.9121 41.8132 92.9121C41.5385 92.9121 41.2088 92.8571 40.989 92.7472C40.7143 92.6374 40.4945 92.4725 40.3297 92.3077C40.1648 92.1429 40 91.8681 39.8901 91.6483C39.7802 91.3736 39.7253 91.0989 39.7253 90.8242C39.7253 90.4945 39.7802 90.2198 39.8901 90C40 89.7253 40.1648 89.5055 40.3297 89.3407C40.4945 89.1758 40.7143 89.011 40.989 88.9011C41.2637 88.7912 41.4835 88.7363 41.8132 88.7363C42.1429 88.7363 42.4176 88.7912 42.6374 88.9011C42.8572 89.011 43.0769 89.1758 43.2418 89.3407C43.4066 89.5055 43.5165 89.7253 43.6264 90C43.7363 90.2198 43.7363 90.4945 43.7363 90.7692V91.044H40.3846V90.9341ZM43.1319 90.4945C43.1319 90.1099 43.022 89.7802 42.8022 89.5604C42.5824 89.3407 42.2528 89.1758 41.8132 89.1758C41.6484 89.1758 41.4286 89.2308 41.2637 89.2857C41.0989 89.3407 40.9341 89.4505 40.8242 89.5604C40.7143 89.6703 40.6044 89.8352 40.4945 90C40.4396 90.1648 40.3846 90.3297 40.3846 90.4945H43.1319Z" fill="white"/>
<path d="M48.9011 92.8022H48.3517V92.1429C48.2418 92.3077 48.1319 92.4176 48.022 92.4725C47.9121 92.5824 47.7473 92.6374 47.6374 92.6923C47.5275 92.7473 47.3626 92.8022 47.1978 92.8571C47.033 92.9121 46.9231 92.9121 46.7582 92.9121C46.4286 92.9121 46.1539 92.8571 45.8791 92.7472C45.6044 92.6374 45.3846 92.4725 45.2198 92.3077C45.055 92.1429 44.8901 91.8681 44.7802 91.6483C44.6703 91.3736 44.6154 91.0989 44.6154 90.8242C44.6154 90.4945 44.6703 90.2198 44.7802 90C44.8901 89.7253 45.055 89.5055 45.2198 89.3407C45.3846 89.1758 45.6593 89.011 45.8791 88.9011C46.1539 88.7912 46.4286 88.7363 46.7582 88.7363C46.8681 88.7363 47.033 88.7363 47.1978 88.7912C47.3626 88.8462 47.4725 88.8461 47.6374 88.956C47.8022 89.011 47.9121 89.1209 48.022 89.1758C48.1319 89.2308 48.2418 89.3956 48.3517 89.5055V86.3187H48.9011V92.8022ZM45.2198 90.7692C45.2198 90.989 45.2747 91.2088 45.3297 91.3736C45.3846 91.5934 45.4945 91.7582 45.6593 91.8681C45.7692 92.033 45.9341 92.1428 46.1539 92.1978C46.3187 92.3077 46.5385 92.3077 46.8132 92.3077C47.033 92.3077 47.2527 92.2527 47.4725 92.1978C47.6923 92.0879 47.8571 91.978 47.967 91.8681C48.1319 91.7033 48.2418 91.5385 48.2967 91.3736C48.3516 91.1538 48.4066 90.989 48.4066 90.7692C48.4066 90.5495 48.3516 90.3297 48.2967 90.1648C48.2418 89.9451 48.0769 89.7802 47.967 89.6703C47.8022 89.5055 47.6374 89.3956 47.4725 89.3407C47.2527 89.2308 47.033 89.2308 46.8132 89.2308C46.5934 89.2308 46.3736 89.2857 46.1539 89.3407C45.989 89.4506 45.8242 89.5604 45.6593 89.6703C45.5495 89.8352 45.4396 90 45.3297 90.1648C45.2198 90.3297 45.2198 90.5495 45.2198 90.7692Z" fill="white"/>
<path d="M52.6923 92.2527H55.5495V92.8022H52.0879V86.7033H52.6923V92.2527Z" fill="white"/>
<path d="M57.0879 87.1978C57.0879 87.3077 57.033 87.4176 56.978 87.4725C56.8682 87.5275 56.8132 87.5824 56.7033 87.5824C56.5934 87.5824 56.4835 87.5275 56.4286 87.4725C56.3187 87.4176 56.3187 87.3077 56.3187 87.1978C56.3187 87.0879 56.3736 86.978 56.4286 86.9231C56.5385 86.8681 56.5934 86.8132 56.7033 86.8132C56.8132 86.8132 56.9231 86.8681 56.978 86.9231C57.033 86.978 57.0879 87.0879 57.0879 87.1978ZM56.9231 92.8022H56.3736V88.7363H56.9231V92.8022Z" fill="white"/>
<path d="M60.0549 92.8022H59.3956L57.7473 88.7363H58.4066L59.7253 92.1429L60.989 88.7363H61.6484L60.0549 92.8022Z" fill="white"/>
<path d="M63.2418 87.1978C63.2418 87.3077 63.1868 87.4176 63.1319 87.4725C63.022 87.5275 62.967 87.5824 62.8572 87.5824C62.7473 87.5824 62.6374 87.5275 62.5824 87.4725C62.4725 87.4176 62.4725 87.3077 62.4725 87.1978C62.4725 87.0879 62.5275 86.978 62.5824 86.9231C62.6923 86.8681 62.7473 86.8132 62.8572 86.8132C62.967 86.8132 63.0769 86.8681 63.1319 86.9231C63.1868 86.978 63.2418 87.0879 63.2418 87.1978ZM63.1319 92.8022H62.5824V88.7363H63.1319V92.8022Z" fill="white"/>
<path d="M65 88.6813V89.3956C65.055 89.2857 65.1649 89.1758 65.2198 89.0659C65.3297 88.956 65.4396 88.9011 65.5495 88.8462C65.6594 88.7912 65.8242 88.7363 65.9341 88.6813C66.044 88.6264 66.2088 88.6264 66.3187 88.6264C66.8132 88.6264 67.1978 88.7363 67.4725 89.011C67.7473 89.2857 67.8572 89.6703 67.8572 90.1648V92.7472H67.3077V90.4945C67.3077 90.055 67.2528 89.7253 67.0879 89.4505C66.9231 89.2308 66.6484 89.0659 66.2088 89.0659C66.1539 89.0659 66.0989 89.0659 65.989 89.1209C65.8791 89.1209 65.7143 89.2308 65.5495 89.2857C65.3846 89.3956 65.2747 89.5604 65.1649 89.7802C65.055 90 65 90.2747 65 90.6593V92.7472H64.4506V89.1758C64.4506 89.011 64.4506 88.8461 64.3956 88.6813H65Z" fill="white"/>
<path d="M69.5055 93.6264C69.6703 93.8461 69.8901 94.011 70.1649 94.1758C70.4396 94.2857 70.7143 94.3956 71.044 94.3956C71.3187 94.3956 71.5934 94.3407 71.7583 94.2857C71.9231 94.2308 72.1429 94.0659 72.2528 93.956C72.3626 93.7912 72.4725 93.6264 72.5275 93.4615C72.5824 93.2418 72.5824 93.0769 72.5824 92.8571V92.033C72.4176 92.3077 72.1978 92.5275 71.9231 92.6374C71.6484 92.7473 71.3736 92.8022 71.0989 92.8022C70.8242 92.8022 70.5495 92.7473 70.2747 92.6374C70 92.5275 69.7802 92.4176 69.6154 92.1978C69.4506 92.033 69.2857 91.8132 69.1758 91.5385C69.0659 91.2637 69.011 90.989 69.011 90.7143C69.011 90.4396 69.0659 90.1648 69.1758 89.8901C69.2857 89.6154 69.3956 89.3956 69.6154 89.2308C69.7802 89.0659 70 88.9011 70.2747 88.7912C70.5495 88.6813 70.8242 88.6264 71.0989 88.6264C71.2088 88.6264 71.3736 88.6264 71.4835 88.6813C71.5934 88.7363 71.7582 88.7363 71.8681 88.7912C71.978 88.8462 72.1429 88.9011 72.2528 89.011C72.3626 89.1209 72.5275 89.2308 72.6374 89.3956V88.7363H73.1868V92.7472C73.1868 92.967 73.1868 93.1868 73.1319 93.4615C73.0769 93.7363 72.967 93.956 72.8022 94.1209C72.6374 94.3407 72.4176 94.5055 72.1429 94.6154C71.8681 94.7253 71.4835 94.8352 71.044 94.8352C70.6593 94.8352 70.2747 94.7802 69.9451 94.6154C69.6154 94.5055 69.3407 94.2857 69.0659 94.011L69.5055 93.6264ZM69.6154 90.7143C69.6154 90.9341 69.6703 91.1539 69.7253 91.3187C69.7802 91.4835 69.8901 91.6484 70.055 91.8132C70.1648 91.978 70.3297 92.0879 70.5495 92.1429C70.7692 92.1978 70.9341 92.2527 71.1539 92.2527C71.3736 92.2527 71.5385 92.1978 71.7583 92.1429C71.9231 92.0879 72.0879 91.978 72.2528 91.8132C72.4176 91.7033 72.5275 91.5385 72.5824 91.3187C72.6374 91.0989 72.6923 90.9341 72.6923 90.6593C72.6923 90.4396 72.6374 90.2198 72.5824 90.0549C72.5275 89.8901 72.4176 89.7253 72.2528 89.5604C72.1429 89.3956 71.978 89.2857 71.7583 89.2308C71.5934 89.1209 71.3736 89.1209 71.0989 89.1209C70.8791 89.1209 70.7143 89.1758 70.4945 89.2308C70.2747 89.2857 70.1648 89.4505 70 89.5604C69.8901 89.7253 69.7802 89.8901 69.6703 90.0549C69.6703 90.3297 69.6154 90.4945 69.6154 90.7143Z" fill="white"/>
<path d="M76.5385 86.2637H76.044V92.967H76.5385V86.2637Z" fill="white"/>
<path d="M82.6374 91.6483L84.7253 86.6484H85.6593V92.7472H85.0549V87.4725L82.8571 92.7472H82.5275L80.3297 87.4725V92.7472H79.7253V86.6484H80.6593L82.6374 91.6483Z" fill="white"/>
<path d="M87.4725 90.9341C87.4725 91.1538 87.5275 91.3187 87.6374 91.4835C87.6923 91.6484 87.8022 91.8132 87.9671 91.9231C88.1319 92.033 88.2418 92.1429 88.4066 92.2527C88.5714 92.3077 88.7912 92.3626 88.9561 92.3626C89.2857 92.3626 89.5055 92.3077 89.7253 92.1429C89.9451 91.978 90.1099 91.8132 90.2198 91.6483L90.6594 92.033C90.4396 92.3626 90.1649 92.5824 89.8352 92.6923C89.5605 92.8022 89.2308 92.9121 88.9011 92.9121C88.6264 92.9121 88.2967 92.8571 88.0769 92.7472C87.8022 92.6374 87.5824 92.4725 87.4176 92.3077C87.2528 92.1429 87.0879 91.8681 86.978 91.6483C86.8681 91.3736 86.8132 91.0989 86.8132 90.8242C86.8132 90.4945 86.8681 90.2198 86.978 90C87.0879 89.7253 87.2528 89.5055 87.4176 89.3407C87.5824 89.1758 87.8022 89.011 88.0769 88.9011C88.3517 88.7912 88.5714 88.7363 88.9011 88.7363C89.2308 88.7363 89.5055 88.7912 89.7253 88.9011C89.9451 89.011 90.1648 89.1758 90.3297 89.3407C90.4945 89.5055 90.6044 89.7253 90.7143 90C90.8242 90.2747 90.8242 90.4945 90.8242 90.7692V91.044H87.4725V90.9341ZM90.2198 90.4945C90.2198 90.1099 90.1099 89.7802 89.8901 89.5604C89.6703 89.3407 89.3407 89.1758 88.9011 89.1758C88.7363 89.1758 88.5165 89.2308 88.3517 89.2857C88.1868 89.3407 88.022 89.4505 87.9121 89.5604C87.8022 89.6703 87.6923 89.8352 87.5824 90C87.5275 90.1648 87.4725 90.3297 87.4725 90.4945H90.2198Z" fill="white"/>
<path d="M91.9231 89.6703V89.2308C91.9231 89.0659 91.9231 88.956 91.8681 88.7912H92.4725V89.3956C92.6374 89.1758 92.8022 88.9561 93.022 88.8462C93.2418 88.7363 93.5165 88.6813 93.7363 88.6813C93.8462 88.6813 93.9561 88.6813 94.066 88.7363C94.1758 88.7912 94.2857 88.7912 94.4506 88.8462C94.6154 88.9011 94.6703 89.011 94.7802 89.1209C94.8901 89.2308 94.9451 89.3956 95.055 89.5604C95.1648 89.2857 95.3297 89.1209 95.6044 88.956C95.8791 88.7912 96.0989 88.7363 96.3736 88.7363C96.8681 88.7363 97.2528 88.8462 97.5275 89.1209C97.8022 89.3956 97.9121 89.7802 97.9121 90.2747V92.8571H97.3627V90.4945C97.3627 90.1099 97.3077 89.7802 97.1429 89.5604C96.978 89.3407 96.7033 89.2308 96.3187 89.2308C96.0989 89.2308 95.9341 89.2857 95.7692 89.3407C95.6044 89.4506 95.4945 89.5604 95.4396 89.6703C95.3297 89.8352 95.2747 89.9451 95.2198 90.1648C95.1648 90.3846 95.1649 90.5495 95.1649 90.7143V92.8571H94.6154V90.4945C94.6154 90.1099 94.5604 89.7802 94.3956 89.5604C94.2308 89.3407 93.956 89.2308 93.5714 89.2308C93.5165 89.2308 93.4615 89.2308 93.3517 89.2857C93.2418 89.3407 93.0769 89.3956 92.967 89.4505C92.8572 89.5604 92.6923 89.7253 92.5824 89.9451C92.4725 90.1648 92.4176 90.4396 92.4176 90.8242V92.9121H91.8681V89.6703H91.9231Z" fill="white"/>
<path d="M103.297 90.7692C103.297 91.0989 103.242 91.3736 103.132 91.5934C103.022 91.8681 102.857 92.0879 102.692 92.2527C102.527 92.4176 102.253 92.5824 102.033 92.6923C101.813 92.8022 101.484 92.8571 101.154 92.8571C100.824 92.8571 100.549 92.8022 100.275 92.6923C100 92.5824 99.7802 92.4176 99.6154 92.2527C99.4506 92.0879 99.2857 91.8132 99.1758 91.5934C99.066 91.3187 99.011 91.044 99.011 90.7692C99.011 90.4396 99.066 90.1648 99.1758 89.9451C99.2857 89.6703 99.4506 89.4506 99.6154 89.2857C99.7802 89.1209 100.055 88.9561 100.275 88.8462C100.495 88.7363 100.824 88.6813 101.154 88.6813C101.484 88.6813 101.758 88.7363 102.033 88.8462C102.308 88.9561 102.527 89.1209 102.692 89.2857C102.857 89.4506 103.022 89.7253 103.132 89.9451C103.242 90.2198 103.297 90.4945 103.297 90.7692ZM102.692 90.7692C102.692 90.5495 102.637 90.3297 102.582 90.1648C102.528 89.9451 102.418 89.7802 102.253 89.6703C102.143 89.5055 101.978 89.3956 101.758 89.3407C101.593 89.2308 101.374 89.2308 101.099 89.2308C100.879 89.2308 100.659 89.2857 100.44 89.3407C100.22 89.3956 100.11 89.5604 99.9451 89.6703C99.8352 89.8352 99.7253 90 99.6154 90.1648C99.5605 90.3846 99.5055 90.5495 99.5055 90.7692C99.5055 90.989 99.5605 91.2088 99.6154 91.3736C99.6703 91.5934 99.7802 91.7582 99.9451 91.8681C100.055 92.033 100.22 92.1429 100.44 92.1978C100.604 92.3077 100.824 92.3077 101.099 92.3077C101.319 92.3077 101.538 92.2527 101.758 92.1978C101.923 92.0879 102.088 91.978 102.253 91.8681C102.363 91.7033 102.473 91.5385 102.582 91.3736C102.637 91.2088 102.692 90.989 102.692 90.7692Z" fill="white"/>
<path d="M104.341 90V88.7363H104.89V89.5055C104.945 89.3956 105 89.2857 105.055 89.1758C105.11 89.0659 105.22 89.011 105.33 88.9011C105.44 88.8461 105.549 88.7363 105.714 88.6813C105.879 88.6264 105.989 88.6264 106.209 88.6264C106.374 88.6264 106.538 88.6264 106.648 88.6813L106.538 89.2308C106.484 89.1758 106.374 89.1758 106.209 89.1758C105.989 89.1758 105.824 89.2308 105.659 89.2857C105.495 89.3956 105.385 89.4506 105.275 89.6154C105.165 89.7253 105.11 89.8901 105.055 90.0549C105 90.2198 105 90.3297 105 90.4945V92.8022H104.451V90H104.341Z" fill="white"/>
<path d="M109.066 92.0879L110.33 88.7363H111.044L109.011 93.8461C108.901 94.1758 108.736 94.3956 108.571 94.6154C108.407 94.8352 108.132 94.8901 107.747 94.8901H107.473C107.363 94.8901 107.308 94.8901 107.198 94.8352L107.253 94.2857C107.363 94.3407 107.527 94.3956 107.692 94.3956C107.912 94.3956 108.077 94.3407 108.187 94.2308C108.297 94.1209 108.407 93.9011 108.516 93.6813L108.791 92.9121L107.143 88.7912H107.857L109.066 92.0879Z" fill="white"/>
<path d="M118.077 91.8132C117.967 91.978 117.857 92.1429 117.692 92.2527C117.527 92.3626 117.363 92.5275 117.143 92.6374C116.923 92.7473 116.758 92.8022 116.484 92.8571C116.264 92.9121 115.989 92.967 115.769 92.967C115.33 92.967 114.89 92.9121 114.505 92.7472C114.121 92.5824 113.791 92.3626 113.516 92.0879C113.242 91.8132 113.022 91.4835 112.857 91.0989C112.692 90.7143 112.637 90.2747 112.637 89.8352C112.637 89.3956 112.692 88.9561 112.857 88.5714C113.022 88.1868 113.242 87.8571 113.516 87.5824C113.791 87.3077 114.121 87.0879 114.505 86.9231C114.89 86.7583 115.33 86.7033 115.769 86.7033C116.154 86.7033 116.538 86.7583 116.923 86.9231C117.308 87.0879 117.637 87.3077 117.912 87.6923L117.363 88.0769C117.308 87.967 117.198 87.8571 117.088 87.8022C116.978 87.7472 116.868 87.6374 116.703 87.5275C116.538 87.4725 116.429 87.4176 116.264 87.3626C116.099 87.3077 115.934 87.3077 115.769 87.3077C115.385 87.3077 115 87.3626 114.725 87.5275C114.396 87.6923 114.176 87.8571 113.956 88.1319C113.736 88.4066 113.571 88.6813 113.462 88.956C113.352 89.2857 113.297 89.6154 113.297 89.9451C113.297 90.2747 113.352 90.6593 113.462 90.9341C113.571 91.2637 113.736 91.5385 113.956 91.7582C114.176 91.978 114.451 92.1978 114.725 92.3626C115.055 92.5275 115.385 92.5824 115.769 92.5824C115.934 92.5824 116.099 92.5824 116.264 92.5275C116.429 92.4725 116.593 92.4725 116.758 92.3626C116.923 92.3077 117.033 92.1978 117.198 92.0879C117.308 91.978 117.473 91.8132 117.582 91.6483L118.077 91.8132Z" fill="white"/>
<path d="M121.593 90.4396V90.2198C121.593 89.5055 121.264 89.1758 120.549 89.1758C120.055 89.1758 119.67 89.3407 119.286 89.6703L118.956 89.2857C119.341 88.9011 119.89 88.6813 120.659 88.6813C120.879 88.6813 121.044 88.7363 121.209 88.7912C121.374 88.8462 121.538 88.956 121.703 89.0659C121.868 89.1758 121.923 89.3407 122.033 89.5055C122.088 89.6703 122.143 89.8901 122.143 90.1648V92.4725C122.143 92.6374 122.198 92.8022 122.198 92.9121H121.648C121.648 92.8022 121.593 92.6923 121.593 92.5824V92.2527C121.429 92.5275 121.209 92.6923 120.989 92.8571C120.769 93.022 120.495 93.022 120.165 93.022C120 93.022 119.835 93.022 119.67 92.967C119.506 92.9121 119.341 92.8571 119.231 92.7472C119.121 92.6374 119.011 92.5275 118.901 92.3626C118.846 92.1978 118.791 92.033 118.791 91.8681C118.791 91.5385 118.901 91.2637 119.066 91.0989C119.231 90.9341 119.451 90.7692 119.725 90.6593C120 90.5495 120.275 90.4945 120.549 90.4945C120.824 90.4945 121.099 90.4396 121.374 90.4396H121.593ZM121.593 90.7692H120.769C120.549 90.7692 120.33 90.8242 120.165 90.8791C119.945 90.9341 119.78 91.044 119.67 91.1538C119.506 91.2637 119.451 91.4286 119.451 91.6483C119.451 91.7582 119.451 91.8681 119.506 91.978C119.56 92.0879 119.615 92.1429 119.725 92.1978C119.835 92.2527 119.945 92.3077 120.055 92.3077C120.165 92.3077 120.275 92.3626 120.385 92.3626C120.604 92.3626 120.769 92.3077 120.934 92.2527C121.099 92.1978 121.209 92.0879 121.319 91.978C121.429 91.8681 121.484 91.7033 121.538 91.5385C121.593 91.3736 121.593 91.2088 121.593 91.044V90.7692Z" fill="white"/>
<path d="M123.462 90V88.7363H124.011V89.5055C124.066 89.3956 124.121 89.2857 124.176 89.1758C124.231 89.0659 124.341 89.011 124.451 88.9011C124.56 88.8461 124.67 88.7363 124.835 88.6813C125 88.6264 125.11 88.6264 125.33 88.6264C125.495 88.6264 125.659 88.6264 125.769 88.6813L125.659 89.2308C125.604 89.1758 125.495 89.1758 125.33 89.1758C125.11 89.1758 124.945 89.2308 124.78 89.2857C124.615 89.3956 124.505 89.4506 124.396 89.6154C124.286 89.7253 124.231 89.8901 124.176 90.0549C124.121 90.2198 124.121 90.3297 124.121 90.4945V92.8022H123.571V90H123.462Z" fill="white"/>
<path d="M126.648 90.9341C126.648 91.1538 126.703 91.3187 126.813 91.4835C126.868 91.6484 126.978 91.8132 127.143 91.9231C127.308 92.033 127.418 92.1429 127.582 92.2527C127.747 92.3077 127.967 92.3626 128.132 92.3626C128.462 92.3626 128.681 92.3077 128.901 92.1429C129.121 91.978 129.286 91.8132 129.396 91.6483L129.835 92.033C129.615 92.3626 129.341 92.5824 129.011 92.6923C128.736 92.8022 128.407 92.9121 128.077 92.9121C127.802 92.9121 127.473 92.8571 127.253 92.7472C126.978 92.6374 126.758 92.4725 126.593 92.3077C126.429 92.1429 126.264 91.8681 126.154 91.6483C126.044 91.3736 125.989 91.0989 125.989 90.8242C125.989 90.4945 126.044 90.2198 126.154 90C126.264 89.7253 126.429 89.5055 126.593 89.3407C126.758 89.1758 126.978 89.011 127.253 88.9011C127.527 88.7912 127.747 88.7363 128.077 88.7363C128.407 88.7363 128.681 88.7912 128.901 88.9011C129.121 89.011 129.341 89.1758 129.506 89.3407C129.67 89.5055 129.78 89.7253 129.89 90C130 90.2747 130 90.4945 130 90.7692V91.044H126.648V90.9341ZM129.396 90.4945C129.396 90.1099 129.286 89.7802 129.066 89.5604C128.846 89.3407 128.516 89.1758 128.077 89.1758C127.912 89.1758 127.692 89.2308 127.527 89.2857C127.363 89.3407 127.198 89.4505 127.088 89.5604C126.978 89.6703 126.868 89.8352 126.758 90C126.703 90.1648 126.648 90.3297 126.648 90.4945H129.396Z" fill="white"/>
</svg>