<svg width="103" height="22" viewBox="0 0 103 22" fill="none" xmlns="http://www.w3.org/2000/svg">
<path d="M11.2278 15.8308L15.032 18.1317C15.7287 18.5533 16.5812 17.93 16.3978 17.1417L15.3895 12.815L18.7537 9.89999C19.3678 9.36832 19.0378 8.35999 18.2312 8.29582L13.8037 7.91999L12.0712 3.83166C11.7595 3.08916 10.6962 3.08916 10.3845 3.83166L8.65202 7.91082L4.22452 8.28666C3.41785 8.35082 3.08785 9.35916 3.70202 9.89082L7.06618 12.8058L6.05785 17.1325C5.87452 17.9208 6.72702 18.5442 7.42368 18.1225L11.2278 15.8308Z" fill="#23A6F0"/>
<path d="M31.2278 15.8308L35.032 18.1317C35.7287 18.5533 36.5812 17.93 36.3978 17.1417L35.3895 12.815L38.7537 9.89999C39.3678 9.36832 39.0378 8.35999 38.2312 8.29582L33.8037 7.91999L32.0712 3.83166C31.7595 3.08916 30.6962 3.08916 30.3845 3.83166L28.652 7.91082L24.2245 8.28666C23.4178 8.35082 23.0878 9.35916 23.702 9.89082L27.0662 12.8058L26.0579 17.1325C25.8745 17.9208 26.727 18.5442 27.4237 18.1225L31.2278 15.8308Z" fill="#23A6F0"/>
<path d="M51.2278 15.8308L55.032 18.1317C55.7287 18.5533 56.5812 17.93 56.3978 17.1417L55.3895 12.815L58.7537 9.89999C59.3678 9.36832 59.0378 8.35999 58.2312 8.29582L53.8037 7.91999L52.0712 3.83166C51.7595 3.08916 50.6962 3.08916 50.3845 3.83166L48.652 7.91082L44.2245 8.28666C43.4178 8.35082 43.0878 9.35916 43.702 9.89082L47.0662 12.8058L46.0579 17.1325C45.8745 17.9208 46.727 18.5442 47.4237 18.1225L51.2278 15.8308Z" fill="#23A6F0"/>
<path d="M71.2278 15.8308L75.032 18.1317C75.7287 18.5533 76.5812 17.93 76.3978 17.1417L75.3895 12.815L78.7537 9.89999C79.3678 9.36832 79.0378 8.35999 78.2312 8.29582L73.8037 7.91999L72.0712 3.83166C71.7595 3.08916 70.6962 3.08916 70.3845 3.83166L68.652 7.91082L64.2245 8.28666C63.4178 8.35082 63.0878 9.35916 63.702 9.89082L67.0662 12.8058L66.0579 17.1325C65.8745 17.9208 66.727 18.5442 67.4237 18.1225L71.2278 15.8308Z" fill="#23A6F0"/>
<path d="M91.2278 15.8308L95.032 18.1317C95.7287 18.5533 96.5812 17.93 96.3978 17.1417L95.3895 12.815L98.7537 9.89999C99.3678 9.36832 99.0378 8.35999 98.2312 8.29582L93.8037 7.91999L92.0712 3.83166C91.7595 3.08916 90.6962 3.08916 90.3845 3.83166L88.652 7.91082L84.2245 8.28666C83.4178 8.35082 83.0878 9.35916 83.702 9.89082L87.0662 12.8058L86.0579 17.1325C85.8745 17.9208 86.727 18.5442 87.4237 18.1225L91.2278 15.8308Z" fill="#23A6F0"/>
</svg>
