<svg width="22" height="19" viewBox="0 0 22 19" fill="none" xmlns="http://www.w3.org/2000/svg">
<path d="M11 17H2.5C2.10218 17 1.72064 16.842 1.43934 16.5607C1.15804 16.2794 1 15.8978 1 15.5V2.5C1 2.10218 1.15804 1.72064 1.43934 1.43934C1.72064 1.15804 2.10218 1 2.5 1H19.5C19.8978 1 20.2794 1.15804 20.5607 1.43934C20.842 1.72064 21 2.10218 21 2.5V8.5295" stroke="#407BEC" stroke-width="1.5" stroke-linecap="round" stroke-linejoin="round"/>
<path d="M1 2.5C1 2.10218 1.15804 1.72064 1.43934 1.43934C1.72064 1.15804 2.10218 1 2.5 1H19.5C19.8978 1 20.2794 1.15804 20.5607 1.43934C20.842 1.72064 21 2.10218 21 2.5V7H1V2.5Z" stroke="#407BEC" stroke-width="1.5"/>
<path d="M3 4C3 3.44772 3.44772 3 4 3C4.55228 3 5 3.44772 5 4C5 4.55228 4.55228 5 4 5C3.44772 5 3 4.55228 3 4Z" fill="#407BEC"/>
<path d="M6 4C6 3.44772 6.44772 3 7 3C7.55228 3 8 3.44772 8 4C8 4.55228 7.55228 5 7 5C6.44772 5 6 4.55228 6 4Z" fill="#407BEC"/>
<path d="M17.5 15.5C18.3284 15.5 19 14.8284 19 14C19 13.1716 18.3284 12.5 17.5 12.5C16.6716 12.5 16 13.1716 16 14C16 14.8284 16.6716 15.5 17.5 15.5Z" stroke="#407BEC" stroke-width="1.5"/>
<path d="M17.4998 17.5V15.5M17.4998 12.5V10.5M14.4688 15.75L16.2008 14.75M18.7987 13.25L20.5308 12.25M14.4688 12.25L16.2008 13.25M18.7987 14.75L20.5308 15.75" stroke="#407BEC" stroke-width="1.5" stroke-linecap="round" stroke-linejoin="round"/>
</svg>
