<svg width="57" height="56" viewBox="0 0 57 56" fill="none" xmlns="http://www.w3.org/2000/svg">
<g clip-path="url(#clip0_135_385)">
<path d="M24.2536 0.55991C12.6243 2.42658 3.30964 11.4052 1.12564 22.8292C-0.442356 31.0612 1.74164 39.6292 7.02431 45.8452C17.627 58.3519 36.0136 59.3599 47.755 48.0852C54.7923 41.3092 57.779 31.1919 55.5203 21.7092C54.2696 16.4826 51.9923 12.4132 48.0536 8.47458C44.0963 4.49858 39.9896 2.22124 34.3523 0.895908C33.1016 0.597244 31.9443 0.50391 29.0136 0.466576C26.9603 0.429245 24.8136 0.466576 24.2536 0.55991ZM32.2803 2.07191C43.3123 3.58391 52.403 12.3946 54.419 23.5199C54.8483 25.9092 54.8483 30.2772 54.419 32.6666C53.243 39.1626 49.491 45.2479 44.2643 49.1866C41.1843 51.4826 36.8723 53.3679 33.027 54.0586C30.619 54.5066 26.0643 54.5066 23.787 54.0586C20.0723 53.3306 16.451 51.8372 13.4456 49.8026C11.6163 48.5519 7.99498 44.9306 6.74431 43.0826C4.74698 40.1519 3.36564 36.8666 2.56298 33.1332C2.04031 30.6506 2.00298 26.1146 2.46964 23.5199C3.96298 15.4746 9.28298 8.26925 16.3763 4.68524C21.4163 2.14658 26.587 1.28791 32.2803 2.07191Z" fill="white"/>
<path d="M25.299 4.75982C23.787 5.30115 22.947 6.58915 22.947 8.38115C22.9657 10.0798 23.899 11.6105 25.243 12.1145C26.0457 12.4318 27.427 12.3572 28.323 11.9465C29.2377 11.5358 29.387 11.2745 29.2004 10.3412L29.0884 9.66915L28.6777 10.0425C27.7444 10.8825 26.4004 11.0878 25.5977 10.5278C24.4777 9.74382 24.235 7.72782 25.1497 6.70115C25.8404 5.93582 27.0164 5.78648 28.0617 6.32782L28.771 6.70115L28.659 5.93582C28.491 4.92782 28.4724 4.90915 27.651 4.66648C26.7364 4.42382 26.1764 4.44248 25.299 4.75982Z" fill="white"/>
<path d="M29.9656 4.89061C29.7229 5.80528 29.8163 5.93595 30.8056 6.06661C31.3283 6.14128 31.7763 6.29061 31.8323 6.42128C31.8696 6.53328 31.6643 7.87728 31.3469 9.40795C31.0483 10.9386 30.8243 12.2266 30.8616 12.2639C30.8989 12.3199 31.2723 12.3946 31.6643 12.4506L32.3736 12.5439L32.9149 9.61328L33.4749 6.68261L34.6323 6.81328L35.7896 6.92528L35.8643 6.34661C35.9203 6.02928 35.8829 5.73061 35.8083 5.67461C35.6963 5.61861 30.3389 4.47995 30.1336 4.47995C30.0963 4.47995 30.0403 4.66661 29.9656 4.89061Z" fill="white"/>
<path d="M17.347 7.20519C14.995 8.23186 14.4723 11.1625 16.2457 13.3279C18.1683 15.6425 21.827 14.9332 22.5923 12.0772C23.0777 10.2479 21.827 7.76519 20.091 7.11186C19.3443 6.83186 18.1123 6.86919 17.347 7.20519ZM19.8483 8.79186C21.0057 9.68786 21.435 11.6292 20.707 12.5625C19.475 14.1119 17.0483 12.7865 16.8243 10.4532C16.7497 9.63186 16.787 9.48253 17.3097 8.95986C18.019 8.26919 19.083 8.19453 19.8483 8.79186Z" fill="white"/>
<path d="M37.3576 7.29866C36.0696 7.67199 34.5203 9.83732 34.5203 11.2747C34.5203 12.6 35.3603 13.944 36.5923 14.56C37.3576 14.952 38.6829 15.0453 39.4296 14.7653C40.2323 14.448 41.2776 13.384 41.7256 12.4133C43.1443 9.37066 40.5869 6.38399 37.3576 7.29866ZM39.5603 8.86666C40.2323 9.22132 40.4936 9.66932 40.4936 10.5467C40.4936 12.8053 38.1416 14.28 36.7416 12.8987C35.8083 11.9467 36.0883 10.3413 37.3949 9.18399C38.1416 8.53066 38.7389 8.43733 39.5603 8.86666Z" fill="white"/>
<path d="M42.4163 13.8319C40.8483 15.0639 39.5603 16.1839 39.5603 16.3145C39.5603 16.4452 39.7656 16.7439 40.0083 16.9679L40.4563 17.3972L41.483 16.6319C43.0883 15.4185 43.2563 15.6239 42.435 17.8639L41.931 19.2265H40.755C40.1016 19.2265 39.5603 19.2825 39.5603 19.3572C39.579 19.4505 39.7283 19.6932 39.915 19.9172C40.1763 20.2345 40.475 20.3465 41.035 20.3465C41.875 20.3465 41.8936 20.3839 41.595 21.2425C41.427 21.7279 41.4643 21.8959 41.7443 22.2879C41.931 22.5492 42.1363 22.7732 42.211 22.7732C42.267 22.7732 42.5096 22.2319 42.7336 21.5785L43.1256 20.4025L44.2643 20.2719C44.899 20.2159 45.459 20.1225 45.4963 20.0665C45.739 19.8239 44.8616 19.2265 44.2643 19.2265C43.6856 19.2265 43.6296 19.1892 43.7416 18.7599C44.059 17.5092 44.171 17.3785 44.843 17.4905C46.0376 17.6772 47.587 16.4079 47.587 15.2319C47.587 14.5785 46.915 13.4025 45.8883 12.2825L45.2536 11.5732L42.4163 13.8319ZM46.0563 15.0079C46.019 15.1945 45.7763 15.5305 45.515 15.7359C44.955 16.1465 44.395 15.9785 44.0216 15.2692C43.8163 14.8959 43.8723 14.7839 44.5256 14.2239L45.2536 13.6079L45.683 14.1305C45.907 14.4105 46.075 14.8212 46.0563 15.0079Z" fill="white"/>
<path d="M11.1683 12.6932C10.515 13.0292 9.35764 14.2239 8.55497 15.3439L8.18164 15.8479L10.9443 18.0319C12.4563 19.2265 13.8003 20.2905 13.9123 20.3652C14.043 20.4772 14.435 20.1225 15.0136 19.3759C16.955 16.8559 17.0856 15.5119 15.5363 13.7945C14.267 12.3945 12.5496 11.9652 11.1683 12.6932ZM13.931 14.4852C15.2003 15.4559 15.3683 16.5572 14.3976 17.7145L13.8936 18.3305L12.2136 16.9865C11.2803 16.2585 10.4963 15.5679 10.459 15.4745C10.3843 15.2319 10.9443 14.5972 11.6536 14.1492C12.3443 13.7199 13.0723 13.8132 13.931 14.4852Z" fill="white"/>
<path d="M28.883 14.0933C28.099 14.5226 27.539 15.8853 27.6697 17.1173C27.8003 18.368 28.211 19.04 28.827 19.04C29.835 19.04 29.219 19.376 27.875 19.5626C26.7363 19.712 26.251 19.8986 25.4483 20.44C24.3283 21.224 23.2083 22.4933 22.9097 23.352C22.611 24.192 23.1337 29.4746 23.563 30.016C23.9363 30.4826 24.0297 29.9413 23.787 28.6533C23.4323 26.9173 23.2457 24.248 23.395 23.6133C23.563 22.96 25.4483 20.9813 26.307 20.5333C26.6617 20.3466 27.5763 20.1413 28.323 20.0666C29.555 19.9546 29.7043 19.88 29.8723 19.4506C30.1897 18.648 30.0217 18.3866 29.2377 18.4426C28.6403 18.48 28.5283 18.424 28.3603 18.0133C27.6697 16.2213 28.7897 14.1866 30.3203 14.4293C30.6937 14.4853 31.011 14.448 31.0857 14.336C31.403 13.8133 29.7417 13.6266 28.883 14.0933Z" fill="white"/>
<path d="M30.3203 19.7866C30.2456 19.8986 30.5443 20.2906 30.9736 20.6826C31.403 21.0559 31.8696 21.5786 32.0003 21.8399C32.1496 22.1199 32.299 23.4266 32.3736 25.0692C32.4856 27.2906 32.5603 27.8132 32.7843 27.8132C33.027 27.8132 33.0456 27.4212 32.9336 25.0506C32.859 23.5386 32.7096 22.1012 32.6163 21.8399C32.4483 21.3732 30.8243 19.5999 30.563 19.5999C30.4883 19.5999 30.3763 19.6932 30.3203 19.7866Z" fill="white"/>
<path d="M26.6243 23.2772C26.7176 25.0319 26.6989 25.1999 26.0269 27.0665C24.7949 30.5945 24.7576 30.7439 25.0003 32.1999C25.1309 32.9092 25.4669 34.0665 25.7656 34.7572C26.5309 36.5119 26.7363 37.8372 26.6243 40.1705C26.5496 41.7572 26.5683 42.1865 26.7549 42.1865C27.0909 42.1865 27.2963 39.1252 27.0723 37.4265C26.9789 36.6985 26.6616 35.4852 26.3443 34.7012C25.6536 32.9839 25.3176 31.3972 25.4856 30.6879C25.5416 30.3892 25.9709 29.0452 26.4189 27.7012C27.1096 25.6479 27.2403 25.0505 27.2216 23.8745C27.2029 22.3439 27.0536 21.6159 26.7363 21.5225C26.5869 21.4665 26.5496 21.9705 26.6243 23.2772Z" fill="white"/>
<path d="M30.7869 23.5199C30.6749 23.7252 30.4883 24.7145 30.3763 25.6852C30.1896 27.3465 30.1896 27.5145 30.6563 28.8772C31.4216 31.2292 31.4589 32.2932 30.8616 35.9705C30.7683 36.6239 30.7869 36.7732 31.0296 36.7732C31.2349 36.7732 31.3843 36.2692 31.6269 34.6639C32.0003 32.2185 31.9069 30.5385 31.3096 29.0825C30.8429 27.9439 30.7683 25.6479 31.1416 24.2852C31.4029 23.3519 31.1603 22.8292 30.7869 23.5199Z" fill="white"/>
<path d="M10.3843 35.9145C8.76027 36.8851 7.3416 37.7438 7.2296 37.8558C7.08027 38.0051 7.26693 38.4905 7.8456 39.4985C8.70427 40.9918 9.4136 41.6265 10.2536 41.6265C10.9816 41.6265 11.9709 41.0105 12.3443 40.3011C12.6056 39.8158 12.8483 39.6291 13.3709 39.5171C13.7629 39.4425 14.3043 39.1438 14.5843 38.8825C15.3683 38.1358 15.2936 37.2771 14.3229 35.5598C13.8749 34.7945 13.4829 34.1785 13.4269 34.1785C13.3709 34.1785 12.0083 34.9625 10.3843 35.9145ZM13.4269 36.7171C13.5763 37.0158 13.7069 37.2958 13.7443 37.3705C13.8563 37.5945 13.2216 38.0798 12.8296 38.0798C12.4003 38.0798 11.9523 37.5945 11.9336 37.1465C11.9336 36.9038 12.6989 36.2878 13.0723 36.2318C13.1283 36.2131 13.2963 36.4371 13.4269 36.7171ZM11.1123 38.4718C11.3736 38.9758 11.3736 39.0878 11.1123 39.4611C10.6643 40.1705 10.0856 40.1891 9.4696 39.5358C9.17093 39.2185 8.9656 38.8638 9.00293 38.7518C9.09627 38.4718 10.4776 37.7065 10.6643 37.8185C10.7576 37.8745 10.9443 38.1731 11.1123 38.4718Z" fill="white"/>
<path d="M43.387 34.5332C42.043 35.4106 41.595 37.2212 42.4723 38.2479C43.4243 39.3866 44.8057 39.3492 46.1123 38.1732C46.859 37.5012 47.531 37.3519 47.923 37.7439C48.483 38.3039 47.867 39.3306 46.5977 39.9839L46.0937 40.2452L46.5977 40.7306C47.1017 41.2159 47.139 41.2346 47.755 40.9359C48.091 40.7679 48.6323 40.2826 48.9123 39.8906C49.9017 38.5279 49.547 36.8479 48.147 36.1199C47.1203 35.5972 46.4297 35.7652 45.0297 36.8852C44.171 37.5946 43.7603 37.6692 43.5177 37.1839C43.275 36.7172 43.4243 36.3812 44.2643 35.6346L45.011 34.9626L44.4697 34.5706C43.9283 34.1972 43.9097 34.1786 43.387 34.5332Z" fill="white"/>
<path d="M40.531 38.5093C40.307 38.752 40.1203 39.0693 40.139 39.2187C40.139 39.592 41.1843 40.376 41.3337 40.1333C41.5017 39.8533 41.987 40.264 41.987 40.6933C41.987 41.16 42.5097 41.3093 42.6403 40.88C42.827 40.2827 42.547 39.648 41.7257 38.8453L40.9417 38.08L40.531 38.5093Z" fill="white"/>
<path d="M14.2857 40.4693C12.5497 42.5973 12.2323 43.2507 12.3443 44.4267C12.4563 45.5093 13.0723 46.368 14.0803 46.8533C15.8163 47.6933 16.899 47.1893 19.1203 44.5013L20.7443 42.5227L20.315 42.0747C20.091 41.832 19.7923 41.6267 19.6617 41.6267C19.531 41.6267 18.7657 42.4293 17.9817 43.4C17.1603 44.408 16.283 45.2853 15.9283 45.4533C15.3497 45.7147 15.2563 45.7147 14.7337 45.4533C13.9683 45.0613 13.7257 44.408 14.0617 43.624C14.1923 43.288 14.9577 42.2427 15.7417 41.272L17.179 39.4987L16.6563 39.0693C16.3763 38.8453 16.059 38.6587 15.947 38.64C15.8537 38.64 15.0883 39.4613 14.2857 40.4693Z" fill="white"/>
<path d="M38.2536 40.8238C38.0483 40.8985 36.2563 42.0931 35.4909 42.6718C35.4163 42.7091 39.2616 48.2905 39.6349 48.6638C39.8029 48.8505 39.9709 48.7945 40.4563 48.4211L41.0536 47.9545L40.3069 46.9091C39.0749 45.1731 39.2989 45.0051 41.5576 45.9571L42.9763 46.5545L43.6109 46.1811C43.9843 45.9758 44.2643 45.7331 44.2456 45.6211C44.2456 45.5278 43.5549 45.1731 42.7336 44.8371L41.2403 44.2025L41.3523 43.4931C41.5016 42.6158 40.8669 41.3651 40.0829 40.9545C39.5789 40.6931 38.7763 40.6371 38.2536 40.8238ZM39.2989 42.3358C39.4109 42.4105 39.6163 42.6718 39.7283 42.9145C39.9336 43.2878 39.9149 43.3998 39.4483 43.8851C39.1683 44.1838 38.8323 44.4265 38.7389 44.4265C38.5149 44.4265 37.6936 43.2505 37.6936 42.9518C37.6936 42.7091 38.4589 42.1865 38.8136 42.1865C38.9629 42.1865 39.1869 42.2611 39.2989 42.3358Z" fill="white"/>
<path d="M20.7257 43.1574C20.483 43.8667 20.539 43.9227 21.6964 44.24C22.1817 44.3707 22.5737 44.5387 22.5737 44.6134C22.5737 44.688 22.2004 45.976 21.7337 47.488C21.267 49.0187 20.8937 50.288 20.8937 50.3067C20.8937 50.4747 22.2564 50.792 22.3684 50.6614C22.443 50.568 22.8164 49.448 23.2084 48.16C24.235 44.7067 24.067 44.9494 25.131 45.2667C25.6164 45.416 26.083 45.5467 26.1577 45.5467C26.2884 45.5467 26.7177 44.3894 26.6057 44.296C26.5497 44.2214 21.1177 42.56 20.9684 42.56C20.9497 42.56 20.8377 42.8214 20.7257 43.1574Z" fill="white"/>
<path d="M32.579 43.5119C31.571 43.8105 30.7123 44.0719 30.675 44.1092C30.619 44.1652 32.4483 51.1279 32.5603 51.2959C32.579 51.3145 33.587 51.0719 34.763 50.7545C36.9096 50.1572 36.9283 50.1385 36.835 49.6719C36.6296 48.8692 36.4803 48.8319 35.1736 49.1865C33.755 49.5599 33.5496 49.4665 33.5123 48.4212C33.4936 47.7492 33.5123 47.7305 34.483 47.4505C35.4536 47.1705 35.491 47.1519 35.379 46.6105C35.323 46.2932 35.2296 45.9945 35.1736 45.9572C35.1176 45.9012 34.6136 45.9759 34.035 46.1065C32.8963 46.3865 32.6536 46.2745 32.6536 45.4159C32.6536 45.0799 32.8403 44.9492 33.6243 44.7065C34.147 44.5572 34.6883 44.4265 34.819 44.4265C35.1736 44.4265 35.2856 44.1465 35.155 43.5119C35.0056 42.8212 34.987 42.8212 32.579 43.5119Z" fill="white"/>
<path d="M26.9603 44.2773C26.9043 44.4266 26.923 46.1253 26.9976 48.0853L27.147 51.6133L28.3603 51.5759C29.0323 51.5573 30.0216 51.5386 30.563 51.5386L31.5336 51.5199V50.8106V50.1199H30.0963H28.6403L28.547 47.1333L28.4536 44.1466L27.7443 44.0906C27.2963 44.0533 27.0163 44.1093 26.9603 44.2773Z" fill="white"/>
</g>
<defs>
<clipPath id="clip0_135_385">
<rect width="56" height="56" fill="white" transform="translate(0.360352)"/>
</clipPath>
</defs>
</svg>
