<svg width="217" height="34" viewBox="0 0 217 34" fill="none" xmlns="http://www.w3.org/2000/svg">
<g clip-path="url(#clip0_149_278)">
<path d="M21.6095 26.5959C22.9654 27.9923 24.7912 28.8429 26.7379 28.9853C28.6847 29.1277 30.616 28.5519 32.1628 27.3679L26.5067 21.6011L6.3414 1.03442C5.27271 1.55528 4.30212 2.25511 3.47213 3.10329C2.63476 3.95751 1.94874 4.94644 1.44312 6.02821L21.6095 26.5959Z" fill="#E6E6E6"/>
<path d="M1.4431 6.0293C0.516069 8.00752 0.213538 10.2186 0.575374 12.3712C0.93721 14.5238 1.94644 16.5169 3.47005 18.0878L16.7081 31.5877C18.064 32.9841 19.8898 33.8347 21.8365 33.9771C23.7833 34.1195 25.7146 33.5437 27.2614 32.3597L21.6053 26.5929L1.4431 6.0293Z" fill="white"/>
<path d="M26.5078 21.5982C27.8637 22.9945 29.6895 23.8451 31.6362 23.9875C33.583 24.13 35.5143 23.5541 37.0611 22.3701L18.167 3.10341C16.6686 1.56017 14.7171 0.528653 12.5925 0.156957C10.4679 -0.21474 8.27951 0.092488 6.34143 1.03454L26.5078 21.5982Z" fill="#CCCCCC"/>
<path d="M36.595 18.0867C38.5474 16.0757 39.6385 13.3896 39.6385 10.5945C39.6385 7.79927 38.5474 5.11322 36.595 3.10223C35.6429 2.12041 34.5016 1.33948 33.2392 0.806091C31.9768 0.272702 30.6192 -0.00219727 29.2476 -0.00219727C27.876 -0.00219727 26.5184 0.272702 25.256 0.806091C23.9936 1.33948 22.8523 2.12041 21.9002 3.10223L12.6635 12.5208C13.2982 13.175 14.0589 13.6954 14.9003 14.0508C15.7417 14.4062 16.6465 14.5894 17.5607 14.5894C18.4749 14.5894 19.3797 14.4062 20.2211 14.0508C21.0625 13.6954 21.8233 13.175 22.458 12.5208L24.9324 9.99881L34.7269 19.9884L36.595 18.0867Z" fill="white"/>
<path d="M24.9335 10L34.728 19.9896L36.593 18.0879L24.9335 10Z" fill="white"/>
<path d="M53.7086 5.39985C53.9999 5.3926 54.2898 5.4434 54.561 5.54928C54.8323 5.65515 55.0795 5.81394 55.2881 6.0163C55.4967 6.21865 55.6625 6.46049 55.7756 6.72754C55.8887 6.99459 55.947 7.28146 55.9469 7.57124C55.9458 7.85942 55.8866 8.14445 55.7726 8.40944C55.6587 8.67443 55.4925 8.91398 55.2838 9.1139C55.075 9.31381 54.8281 9.47003 54.5575 9.57328C54.2869 9.67652 53.9982 9.7247 53.7086 9.71495C53.4216 9.72433 53.1358 9.67551 52.8684 9.57146C52.601 9.46741 52.3578 9.3103 52.1535 9.10972C51.9492 8.90914 51.7881 8.6693 51.68 8.4048C51.572 8.14029 51.5192 7.85668 51.5249 7.57124C51.5186 7.28436 51.5708 6.99918 51.6783 6.73289C51.7857 6.4666 51.9463 6.22471 52.1504 6.02181C52.3544 5.81891 52.5977 5.6592 52.8655 5.5523C53.1333 5.44541 53.4201 5.39355 53.7086 5.39985ZM52.0157 25.8333V11.7469H55.3737V25.8333H52.0157Z" fill="white"/>
<path d="M61.7628 14.8646C61.8815 13.9428 62.3252 13.0927 63.0151 12.4657C63.7049 11.8387 64.5961 11.4754 65.5301 11.4404C65.92 11.4463 66.3068 11.512 66.6765 11.6352V15.0041C66.168 14.824 65.6327 14.7298 65.0929 14.7252C63.864 14.7252 61.8175 15.4213 61.8175 19.3181V25.8323H58.4595V11.7459H61.7587L61.7628 14.8646Z" fill="white"/>
<path d="M69.8963 5.39985C70.1876 5.3926 70.4775 5.4434 70.7488 5.54928C71.02 5.65515 71.2673 5.81394 71.4758 6.0163C71.6844 6.21865 71.8502 6.46049 71.9633 6.72754C72.0765 6.99459 72.1347 7.28146 72.1346 7.57124C72.1336 7.85942 72.0743 8.14445 71.9604 8.40944C71.8465 8.67443 71.6802 8.91398 71.4715 9.1139C71.2628 9.31381 71.0158 9.47003 70.7452 9.57328C70.4746 9.67652 70.186 9.7247 69.8963 9.71495C69.6094 9.72433 69.3235 9.67551 69.0561 9.57146C68.7888 9.46741 68.5455 9.3103 68.3412 9.10972C68.1369 8.90914 67.9758 8.6693 67.8677 8.4048C67.7597 8.14029 67.7069 7.85668 67.7127 7.57124C67.7063 7.28436 67.7585 6.99918 67.866 6.73289C67.9735 6.4666 68.1341 6.22471 68.3381 6.02181C68.5422 5.81891 68.7854 5.6592 69.0532 5.5523C69.321 5.44541 69.6078 5.39355 69.8963 5.39985ZM68.2034 25.8333V11.7469H71.5614V25.8333H68.2034Z" fill="white"/>
<path d="M76.0936 21.351C76.2826 21.9708 76.6767 22.5088 77.2121 22.8777C77.7474 23.2466 78.3924 23.4247 79.0424 23.3829C80.0249 23.3829 81.1167 23.021 81.1167 21.9077C81.1167 21.1839 80.462 20.7666 79.6156 20.4037L77.5958 19.6245C74.839 18.5665 74.1286 16.9805 74.1286 15.7C74.1286 13.0827 76.3133 11.4403 79.1805 11.4403C80.2218 11.3624 81.2599 11.6285 82.1337 12.1972C83.0074 12.7659 83.6679 13.6055 84.0128 14.5856L81.3105 15.5883C81.1723 15.1486 80.8905 14.7675 80.5096 14.5052C80.1288 14.243 79.6708 14.1147 79.2083 14.1407C78.992 14.1171 78.7733 14.1367 78.5648 14.1985C78.3563 14.2603 78.1624 14.363 77.9944 14.5005C77.8265 14.638 77.6879 14.8075 77.5868 14.9991C77.4858 15.1907 77.4244 15.4004 77.4061 15.616C77.4061 16.3951 78.0887 16.7857 78.8495 17.0636L80.8971 17.815C83.8457 18.8177 84.419 20.6262 84.419 21.8513C84.419 24.6347 81.8797 26.1387 79.0135 26.1387C76.7752 26.1387 74.2358 25.1924 73.446 22.492L76.0936 21.351Z" fill="white"/>
<path d="M95.5579 21.6577C95.5579 23.662 96.5683 24.275 97.5777 24.275C97.8295 24.2994 98.0836 24.2705 98.3234 24.1901C98.5632 24.1098 98.7831 23.9799 98.9687 23.809C99.1544 23.638 99.3015 23.4299 99.4004 23.1984C99.4993 22.9668 99.5479 22.7171 99.5427 22.4655C99.5404 22.1226 99.4758 21.783 99.352 21.4629H101.236C101.378 21.8654 101.452 22.2889 101.454 22.7157C101.454 24.6369 100.035 26.1399 97.5508 26.1399C95.5301 26.1399 93.5104 25.1659 93.5104 21.5183V13.6406H91.2174V11.9746H93.5104L94.0011 7.77124H95.5569V11.9746H99.9799V13.6447H95.5569L95.5579 21.6577Z" fill="white"/>
<path d="M116.087 23.7172C115.348 24.5104 114.447 25.137 113.444 25.5549C112.441 25.9728 111.359 26.1722 110.272 26.1398C105.576 26.1398 102.628 22.9104 102.628 18.9572C102.61 17.9957 102.787 17.0405 103.149 16.1484C103.51 15.2564 104.048 14.4459 104.731 13.7653C105.415 13.0846 106.229 12.5477 107.125 12.1867C108.021 11.8257 108.982 11.6478 109.949 11.6638C113.443 11.6638 116.719 13.8906 116.774 18.8741H104.68V19.0966C104.68 22.0748 106.864 24.3026 110.276 24.3026C112.006 24.3214 113.673 23.6612 114.916 22.4654L116.087 23.7172ZM104.894 17.2584H114.64C114.474 16.1707 113.907 15.1832 113.05 14.4884C112.192 13.7936 111.105 13.4412 110 13.5C108.849 13.4677 107.72 13.8207 106.794 14.5023C105.869 15.184 105.2 16.1549 104.896 17.2594L104.894 17.2584Z" fill="white"/>
<path d="M121.302 25.8332H119.251V5.7063H121.299L121.302 25.8332Z" fill="white"/>
<path d="M137.435 23.7172C136.696 24.5104 135.795 25.137 134.792 25.5549C133.789 25.9728 132.707 26.1722 131.62 26.1398C126.925 26.1398 123.976 22.9104 123.976 18.9572C123.958 17.9957 124.135 17.0405 124.497 16.1484C124.858 15.2564 125.396 14.4459 126.079 13.7653C126.763 13.0846 127.577 12.5477 128.473 12.1867C129.369 11.8257 130.329 11.6478 131.296 11.6638C134.79 11.6638 138.067 13.8906 138.122 18.8741H126.028V19.0966C126.028 22.0748 128.212 24.3026 131.624 24.3026C133.354 24.3212 135.021 23.6611 136.264 22.4654L137.435 23.7172ZM126.242 17.2584H135.989C135.823 16.1708 135.256 15.1835 134.398 14.4887C133.541 13.7939 132.454 13.4415 131.349 13.5C130.197 13.4672 129.068 13.82 128.142 14.5017C127.216 15.1834 126.547 16.1546 126.242 17.2594V17.2584Z" fill="white"/>
<path d="M150.675 17.9555C150.675 14.5866 148.928 13.5297 147.181 13.5297C145.68 13.5297 142.594 14.6154 142.542 19.0976V25.8342H140.494V5.7063H142.542V14.9209C142.881 13.9402 143.529 13.0941 144.389 12.5076C145.25 11.9211 146.277 11.6253 147.319 11.6638C150.268 11.6638 152.725 13.4169 152.725 17.9555V25.8342H150.677L150.675 17.9555Z" fill="white"/>
<path d="M168.529 23.7172C167.79 24.5105 166.889 25.1371 165.886 25.555C164.883 25.9729 163.801 26.1723 162.714 26.1398C158.018 26.1398 155.07 22.9104 155.07 18.9572C155.052 17.9957 155.229 17.0405 155.591 16.1484C155.952 15.2564 156.49 14.4459 157.173 13.7653C157.857 13.0846 158.671 12.5477 159.567 12.1867C160.463 11.8257 161.424 11.6478 162.39 11.6638C165.885 11.6638 169.161 13.8906 169.216 18.8741H157.122V19.0966C157.122 22.0748 159.306 24.3026 162.718 24.3026C164.448 24.3212 166.115 23.6611 167.358 22.4654L168.529 23.7172ZM157.336 17.2584H167.083C166.917 16.1708 166.35 15.1835 165.492 14.4887C164.635 13.7939 163.548 13.4415 162.443 13.5C161.291 13.4672 160.162 13.82 159.236 14.5017C158.31 15.1834 157.641 16.1546 157.336 17.2594V17.2584Z" fill="white"/>
<path d="M184.772 25.8332H182.725V23.0754C182.198 24.0339 181.413 24.8279 180.459 25.3686C179.504 25.9094 178.417 26.1756 177.319 26.1377C173.195 26.1377 170.549 22.8806 170.549 18.8997C170.549 14.9188 173.196 11.6618 177.319 11.6618C178.417 11.6238 179.504 11.8901 180.459 12.4309C181.413 12.9716 182.198 13.7656 182.725 14.7241V11.9683H184.772V25.8332ZM177.511 24.2739C178.915 24.2307 180.247 23.6458 181.225 22.6429C182.203 21.6401 182.75 20.2981 182.75 18.9013C182.75 17.5044 182.203 16.1624 181.225 15.1596C180.247 14.1567 178.915 13.5718 177.511 13.5287C174.426 13.5287 172.597 15.9225 172.597 18.9018C172.597 21.8246 174.425 24.2749 177.51 24.2749L177.511 24.2739Z" fill="white"/>
<path d="M190.559 25.8332H188.512V5.7063H190.559V25.8332Z" fill="white"/>
<path d="M196.946 21.6577C196.946 23.662 197.957 24.275 198.966 24.275C199.218 24.2996 199.472 24.2708 199.712 24.1905C199.952 24.1102 200.172 23.9803 200.358 23.8093C200.543 23.6384 200.69 23.4302 200.789 23.1986C200.888 22.967 200.937 22.7171 200.931 22.4655C200.929 22.1226 200.864 21.783 200.741 21.4629H202.624C202.767 21.8654 202.841 22.2889 202.843 22.7157C202.843 24.6369 201.423 26.1399 198.938 26.1399C196.919 26.1399 194.898 25.1659 194.898 21.5183V13.6406H192.605V11.9746H194.898L195.39 7.77124H196.945V11.9746H201.368V13.6447H196.945L196.946 21.6577Z" fill="white"/>
<path d="M214.747 17.9555C214.747 14.5866 212.999 13.5297 211.253 13.5297C209.751 13.5297 206.667 14.6154 206.613 19.0976V25.8342H204.566V5.7063H206.613V14.9209C206.953 13.9402 207.601 13.0941 208.461 12.5076C209.321 11.9211 210.348 11.6253 211.391 11.6638C214.339 11.6638 216.796 13.4169 216.796 17.9555V25.8342H214.749L214.747 17.9555Z" fill="white"/>
</g>
<defs>
<clipPath id="clip0_149_278">
<rect width="216.364" height="34" fill="white" transform="translate(0.430664)"/>
</clipPath>
</defs>
</svg>
