<svg width="84" height="22" viewBox="0 0 84 22" fill="none" xmlns="http://www.w3.org/2000/svg">
<g clip-path="url(#clip0_127_324)">
<path d="M9.65005 2.2217C11.1721 2.51149 12.5009 3.35671 13.419 4.54003C14.2887 5.6509 14.8202 7.0757 14.8202 8.59711C14.8202 9.58723 14.2646 11.1086 13.2499 12.9681C13.5639 13.4994 13.9022 14.079 14.2887 14.7069C15.5692 12.4851 16.5356 10.2393 16.5356 8.59711C16.5356 6.73761 15.9557 5.02301 14.9652 3.6465C14.023 2.34244 12.7425 1.30402 11.2204 0.74859C10.399 0.4105 9.48094 0.241455 8.51455 0.241455C4.06916 0.241455 0.46936 3.98459 0.46936 8.59711C0.46936 11.9539 4.50403 17.7738 6.89585 20.9374C7.2824 21.4687 7.88639 21.7585 8.51455 21.7585C9.1427 21.7585 9.74669 21.4687 10.1332 20.9374C10.6406 20.2854 11.1963 19.5126 11.8003 18.6674C11.4379 18.1361 11.0996 17.6048 10.7614 17.0735C10.1574 17.9429 9.5051 18.8364 8.80446 19.7782C8.68367 19.9473 8.39375 19.9473 8.24879 19.7782C4.45571 14.7793 2.20886 10.6015 2.20886 8.59711C2.20886 5.02301 5.03555 2.10095 8.51455 2.10095C8.9011 2.10095 9.2635 2.14925 9.65005 2.2217Z" fill="#DC762B"/>
<path d="M13.3223 18.6674C13.9021 19.5126 14.482 20.2854 14.9893 20.9374C15.3759 21.4687 15.9799 21.7585 16.608 21.7585C17.2362 21.7585 17.8402 21.4687 18.2267 20.9374C20.5944 17.7738 24.6291 11.9297 24.6291 8.59711C24.6291 3.98459 21.0293 0.241455 16.5839 0.241455C15.6175 0.241455 14.6994 0.4105 13.8538 0.74859C14.4337 1.18328 14.9893 1.66626 15.4484 2.2217C15.8108 2.14925 16.1973 2.10095 16.5839 2.10095C20.0629 2.10095 22.8896 4.99886 22.8896 8.59711C22.8896 10.6015 20.6427 14.7793 16.8496 19.7782C16.7288 19.9473 16.4389 19.9473 16.294 19.7782C15.5933 18.8364 14.941 17.9429 14.337 17.0735C13.3223 15.5763 12.4526 14.1997 11.8002 12.9681C10.7855 11.0845 10.254 9.56308 10.254 8.59711C10.254 7.05155 10.7855 5.6509 11.6553 4.54003C11.1963 4.15364 10.6647 3.86385 10.0849 3.6465C9.09436 5.02301 8.51453 6.73761 8.51453 8.59711C8.51453 10.2393 9.48091 12.4851 10.7614 14.7069C11.5587 16.0834 12.4526 17.4357 13.3223 18.6674Z" fill="#DC762B"/>
<path d="M37.6029 6.93086V13.741C37.6029 16.8804 35.9358 18.5225 32.7226 18.5225C29.4852 18.5225 27.939 16.9045 27.939 13.7168V6.83426C27.939 6.39957 28.2772 6.01318 28.7846 6.01318C29.3161 6.01318 29.6785 6.39957 29.6785 6.83426V13.6685C29.6785 16.011 30.6449 16.977 32.7226 16.977C34.7762 16.977 35.8634 16.0593 35.8634 13.7168V6.93086C35.8634 6.42372 36.2257 6.01318 36.7089 6.01318C37.2405 6.01318 37.6029 6.42372 37.6029 6.93086Z" fill="white"/>
<path d="M47.5326 14.1031C47.5326 16.9769 45.9622 18.5225 43.1597 18.5225C42.4349 18.5225 41.8309 18.4017 41.3477 18.2327V20.7683C41.3477 21.203 41.0336 21.5653 40.5021 21.5653C39.9947 21.5653 39.6565 21.203 39.6565 20.7683V10.6739C39.6565 10.2393 39.9706 9.94946 40.3813 9.94946C40.8403 9.94946 41.0578 10.2393 41.1061 10.6739L41.1544 11.326C41.6617 10.529 42.5315 9.94946 43.8361 9.94946C46.1313 9.94946 47.5326 11.2777 47.5326 14.1031ZM45.8414 14.1997C45.8414 12.2436 44.9716 11.3984 43.5462 11.3984C42.2657 11.3984 41.3477 12.2919 41.3477 13.4511H41.3235V16.7354C41.7826 16.9286 42.3382 17.1218 43.063 17.1218C44.7784 17.0977 45.8414 16.2524 45.8414 14.1997Z" fill="white"/>
<path d="M59.4916 9.27334C59.4916 9.73217 59.1534 9.97367 58.7668 9.97367C58.3319 9.97367 58.1387 9.82877 58.0179 9.44238C57.7521 8.83865 57.2206 7.53459 55.1187 7.53459C52.751 7.53459 51.2048 9.03184 51.2048 12.123C51.2048 15.359 52.8718 16.9528 55.5777 16.9528C56.9548 16.9528 57.8246 16.5423 58.2353 16.3974C58.4044 16.3491 58.5494 16.3008 58.7427 16.3008C59.1534 16.3008 59.4191 16.6147 59.4191 17.0011C59.4191 17.4116 59.25 17.6048 58.9359 17.798C58.1628 18.2327 56.7132 18.5225 55.3845 18.5225C51.7122 18.5225 49.4412 16.3491 49.4412 12.2437C49.4412 8.21077 51.6639 6.01318 55.0704 6.01318C58.1387 6.01318 59.4916 7.82438 59.4916 9.27334Z" fill="white"/>
<path d="M61.3036 7.38966C61.3036 6.73762 61.7626 6.25464 62.3908 6.25464C63.0431 6.25464 63.478 6.73762 63.478 7.38966C63.478 8.04169 63.0431 8.52467 62.3908 8.52467C61.7626 8.52467 61.3036 8.04169 61.3036 7.38966ZM63.188 10.6981V17.7014C63.188 18.1361 62.874 18.4983 62.3425 18.4983C61.8351 18.4983 61.4969 18.1361 61.4969 17.7014V10.6981C61.4969 10.2634 61.8351 9.90118 62.3425 9.90118C62.8498 9.92533 63.188 10.2634 63.188 10.6981Z" fill="white"/>
<path d="M67.9233 11.4709V15.9626C67.9233 16.8079 68.3099 17.0252 68.8897 17.0252C69.0347 17.0252 69.1797 17.001 69.4696 16.9769C69.9528 16.9045 70.1944 17.2667 70.1944 17.6289C70.1944 17.967 70.0011 18.3051 69.5904 18.3776C69.2521 18.4259 68.8656 18.4742 68.479 18.4742C67.0053 18.4742 66.2805 17.9429 66.2805 16.0834V11.4709H65.4349C65.0725 11.4709 64.7584 11.1811 64.7584 10.7705C64.7584 10.3358 65.0725 10.0702 65.4349 10.0702H66.2805V8.4522C66.2805 8.01751 66.6187 7.65527 67.1261 7.65527C67.6334 7.65527 67.9475 8.01751 67.9475 8.4522V10.0702H69.542C69.9286 10.0702 70.2185 10.3358 70.2185 10.7705C70.2185 11.1811 69.9286 11.4709 69.542 11.4709H67.9233Z" fill="white"/>
<path d="M79.0127 10.6257C79.0127 10.7706 78.9643 10.9397 78.8919 11.0846L75.3162 19.6093C74.7122 21.0341 73.8183 21.5171 72.5137 21.5171C72.2238 21.5171 72.0788 21.4929 71.958 21.4929C71.5232 21.4446 71.2574 21.179 71.2574 20.7684C71.2574 20.382 71.499 20.0439 71.9339 20.0681C72.0547 20.0681 72.1755 20.0922 72.4412 20.0922C73.2627 20.0922 73.7458 19.8266 73.9874 19.1746L74.3498 18.2569L71.2574 11.1087C71.1849 10.9638 71.1366 10.7948 71.1366 10.6499C71.1366 10.1669 71.5231 9.90125 71.9339 9.90125C72.2479 9.90125 72.5862 10.0944 72.7311 10.4567L75.1471 16.2767L77.4664 10.4325C77.6114 10.0703 77.9013 9.92539 78.2637 9.92539C78.6019 9.90124 79.0127 10.1427 79.0127 10.6257Z" fill="white"/>
<path d="M83.5304 10.9879C83.5304 11.1087 83.458 11.1811 83.3372 11.1811C83.2164 11.1811 83.1439 11.1087 83.1439 10.9879L83.1197 9.90122L82.6848 10.8672C82.6365 10.9638 82.564 11.0121 82.4916 11.0121C82.4191 11.0121 82.3466 10.9638 82.2983 10.8913L81.8392 9.87707L81.8151 10.9879C81.8151 11.1087 81.7426 11.1811 81.6218 11.1811C81.501 11.1811 81.4285 11.1087 81.4285 10.9879L81.4527 9.75632H80.8487V10.9879C80.8487 11.1087 80.7762 11.1811 80.6554 11.1811C80.5346 11.1811 80.4621 11.1087 80.4621 10.9879V9.75632H80.0273C79.9306 9.75632 79.8582 9.68388 79.8582 9.58728C79.8582 9.49068 79.9306 9.44238 80.0273 9.44238H81.646C81.8392 9.44238 81.9842 9.53898 82.0808 9.68388L82.4674 10.5533L82.8781 9.65973C82.9506 9.51483 83.0714 9.44238 83.1922 9.44238C83.3613 9.44238 83.4821 9.56313 83.4821 9.75632L83.5304 10.9879Z" fill="white"/>
</g>
<defs>
<clipPath id="clip0_127_324">
<rect width="83.5443" height="22" fill="white" transform="translate(0.227783)"/>
</clipPath>
</defs>
</svg>
